STARTFONT 2.1
FONT -FontForge-pixelclock-main-Medium-R-Normal--24-240-75-75-P-132-ISO8859-1
SIZE 24 75 75
FONTBOUNDINGBOX 13 22 0 -4
COMMENT "Generated by fontforge, http://fontforge.sourceforge.net"
COMMENT "Copyright 2017 IBM Corp. All rights reserved."
COMMENT "Tuned for Matrix clock by John Park"
STARTPROPERTIES 41
FOUNDRY "FontForge"
FAMILY_NAME "pixelclock-main"
WEIGHT_NAME "Medium"
SLANT "R"
SETWIDTH_NAME "Normal"
ADD_STYLE_NAME ""
PIXEL_SIZE 24
POINT_SIZE 240
RESOLUTION_X 75
RESOLUTION_Y 75
SPACING "P"
AVERAGE_WIDTH 132
CHARSET_REGISTRY "ISO8859"
CHARSET_ENCODING "1"
FONTNAME_REGISTRY ""
CHARSET_COLLECTIONS "ISOLatin1Encoding"
FONT_NAME "pixelclock-main"
FACE_NAME "IBM Plex Mono Medium"
COPYRIGHT "Copyright 2017 IBM Corp. All rights reserved."
FONT_VERSION "2.000"
FONT_ASCENT 19
FONT_DESCENT 5
UNDERLINE_POSITION -4
UNDERLINE_THICKNESS 2
X_HEIGHT 11
CAP_HEIGHT 16
DEFAULT_CHAR 1
RAW_ASCENT 780
RAW_DESCENT 220
NORM_SPACE 14
RELATIVE_WEIGHT 50
RELATIVE_SETWIDTH 50
SUPERSCRIPT_X 0
SUPERSCRIPT_Y 8
SUPERSCRIPT_SIZE 14
SUBSCRIPT_X 0
SUBSCRIPT_Y 1
SUBSCRIPT_SIZE 14
FIGURE_WIDTH 14
AVG_LOWERCASE_WIDTH 140
AVG_UPPERCASE_WIDTH 140
ENDPROPERTIES
CHARS 97
STARTCHAR .null.dup1
ENCODING 0
SWIDTH 0 0
DWIDTH 0 0
BBX 1 1 0 0
BITMAP
00
ENDCHAR
STARTCHAR uni000D
ENCODING 13
SWIDTH 600 0
DWIDTH 14 0
BBX 1 1 0 0
BITMAP
00
ENDCHAR
STARTCHAR space
ENCODING 32
SWIDTH 208 0
DWIDTH 5 0
BBX 1 1 0 0
BITMAP
00
ENDCHAR
STARTCHAR exclam
ENCODING 33
SWIDTH 600 0
DWIDTH 4 0
BBX 3 5 0 0
BITMAP
E0
E0
E0
E0
E0
ENDCHAR
STARTCHAR quotedbl
ENCODING 34
SWIDTH 600 0
DWIDTH 4 0
BBX 3 5 0 0
BITMAP
E0
E0
E0
E0
E0
ENDCHAR
STARTCHAR numbersign
ENCODING 35
SWIDTH 600 0
DWIDTH 4 0
BBX 3 5 0 0
BITMAP
E0
E0
E0
E0
E0
ENDCHAR
STARTCHAR dollar
ENCODING 36
SWIDTH 600 0
DWIDTH 4 0
BBX 3 5 0 0
BITMAP
E0
E0
E0
E0
E0
ENDCHAR
STARTCHAR percent
ENCODING 37
SWIDTH 600 0
DWIDTH 4 0
BBX 3 5 0 0
BITMAP
E0
E0
E0
E0
E0
ENDCHAR
STARTCHAR ampersand
ENCODING 38
SWIDTH 600 0
DWIDTH 4 0
BBX 3 5 0 0
BITMAP
E0
E0
E0
E0
E0
ENDCHAR
STARTCHAR quotesingle
ENCODING 39
SWIDTH 600 0
DWIDTH 4 0
BBX 3 5 0 0
BITMAP
E0
E0
E0
E0
E0
ENDCHAR
STARTCHAR parenleft
ENCODING 40
SWIDTH 600 0
DWIDTH 4 0
BBX 3 5 0 0
BITMAP
E0
E0
E0
E0
E0
ENDCHAR
STARTCHAR parenright
ENCODING 41
SWIDTH 600 0
DWIDTH 4 0
BBX 3 5 0 0
BITMAP
E0
E0
E0
E0
E0
ENDCHAR
STARTCHAR asterisk
ENCODING 42
SWIDTH 600 0
DWIDTH 7 0
BBX 7 6 0 9
BITMAP
6C
FE
FE
7C
38
10
ENDCHAR
STARTCHAR plus
ENCODING 43
SWIDTH 600 0
DWIDTH 4 0
BBX 3 5 0 0
BITMAP
E0
E0
E0
E0
E0
ENDCHAR
STARTCHAR comma
ENCODING 44
SWIDTH 600 0
DWIDTH 4 0
BBX 3 5 0 0
BITMAP
E0
E0
E0
E0
E0
ENDCHAR
STARTCHAR hyphen
ENCODING 45
SWIDTH 600 0
DWIDTH 4 0
BBX 3 5 0 0
BITMAP
E0
E0
E0
E0
E0
ENDCHAR
STARTCHAR period
ENCODING 46
SWIDTH 600 0
DWIDTH 4 0
BBX 3 5 0 0
BITMAP
E0
E0
E0
E0
E0
ENDCHAR
STARTCHAR slash
ENCODING 47
SWIDTH 600 0
DWIDTH 14 0
BBX 10 21 2 -3
BITMAP
00C0
01C0
0180
0180
0380
0300
0700
0600
0600
0E00
0C00
0C00
1800
1800
3800
3000
3000
7000
6000
E000
C000
ENDCHAR
STARTCHAR zero
ENCODING 48
SWIDTH 375 0
DWIDTH 9 0
BBX 7 14 1 0
BITMAP
FE
FE
EE
EE
EE
EE
EE
EE
EE
EE
EE
EE
FE
FE
ENDCHAR
STARTCHAR one
ENCODING 49
SWIDTH 375 0
DWIDTH 9 0
BBX 4 14 4 0
BITMAP
F0
F0
70
70
70
70
70
70
70
70
70
70
70
70
ENDCHAR
STARTCHAR two
ENCODING 50
SWIDTH 375 0
DWIDTH 9 0
BBX 7 14 1 0
BITMAP
FE
FE
0E
0E
0E
0E
FE
FE
E0
E0
E0
E0
FE
FE
ENDCHAR
STARTCHAR three
ENCODING 51
SWIDTH 375 0
DWIDTH 9 0
BBX 7 14 1 0
BITMAP
FE
FE
0E
0E
0E
0E
FE
FE
0E
0E
0E
0E
FE
FE
ENDCHAR
STARTCHAR four
ENCODING 52
SWIDTH 375 0
DWIDTH 9 0
BBX 7 14 1 0
BITMAP
EE
EE
EE
EE
EE
EE
EE
FE
FE
0E
0E
0E
0E
0E
ENDCHAR
STARTCHAR five
ENCODING 53
SWIDTH 375 0
DWIDTH 9 0
BBX 7 14 1 0
BITMAP
FE
FE
E0
E0
E0
E0
FE
FE
0E
0E
0E
0E
FE
FE
ENDCHAR
STARTCHAR six
ENCODING 54
SWIDTH 375 0
DWIDTH 9 0
BBX 7 14 1 0
BITMAP
FE
FE
EE
EE
E0
E0
FE
FE
EE
EE
EE
EE
FE
FE
ENDCHAR
STARTCHAR seven
ENCODING 55
SWIDTH 375 0
DWIDTH 9 0
BBX 7 14 1 0
BITMAP
FE
FE
0E
0E
0E
0E
0E
0E
0E
0E
0E
0E
0E
0E
ENDCHAR
STARTCHAR eight
ENCODING 56
SWIDTH 375 0
DWIDTH 9 0
BBX 7 14 1 0
BITMAP
FE
FE
EE
EE
EE
EE
FE
FE
EE
EE
EE
EE
FE
FE
ENDCHAR
STARTCHAR nine
ENCODING 57
SWIDTH 375 0
DWIDTH 9 0
BBX 7 14 1 0
BITMAP
FE
FE
EE
EE
FE
FE
0E
0E
0E
0E
0E
0E
0E
0E
ENDCHAR
STARTCHAR colon
ENCODING 58
SWIDTH 208 0
DWIDTH 5 0
BBX 3 9 1 2
BITMAP
E0
E0
E0
00
00
00
E0
E0
E0
ENDCHAR
STARTCHAR semicolon
ENCODING 59
SWIDTH 600 0
DWIDTH 4 0
BBX 3 5 0 0
BITMAP
E0
E0
E0
E0
E0
ENDCHAR
STARTCHAR less
ENCODING 60
SWIDTH 600 0
DWIDTH 4 0
BBX 3 5 0 0
BITMAP
E0
E0
E0
E0
E0
ENDCHAR
STARTCHAR equal
ENCODING 61
SWIDTH 600 0
DWIDTH 4 0
BBX 3 5 0 0
BITMAP
E0
E0
E0
E0
E0
ENDCHAR
STARTCHAR greater
ENCODING 62
SWIDTH 600 0
DWIDTH 4 0
BBX 3 5 0 0
BITMAP
E0
E0
E0
E0
E0
ENDCHAR
STARTCHAR question
ENCODING 63
SWIDTH 600 0
DWIDTH 4 0
BBX 3 5 0 0
BITMAP
E0
E0
E0
E0
E0
ENDCHAR
STARTCHAR at
ENCODING 64
SWIDTH 600 0
DWIDTH 14 0
BBX 7 7 0 8
BITMAP
38
7C
FE
FE
FE
7C
38
ENDCHAR
STARTCHAR A
ENCODING 65
SWIDTH 208 0
DWIDTH 5 0
BBX 4 4 0 10
BITMAP
F0
90
F0
90
ENDCHAR
STARTCHAR B
ENCODING 66
SWIDTH 600 0
DWIDTH 4 0
BBX 3 5 0 0
BITMAP
E0
E0
E0
E0
E0
ENDCHAR
STARTCHAR C
ENCODING 67
SWIDTH 600 0
DWIDTH 4 0
BBX 3 5 0 0
BITMAP
E0
E0
E0
E0
E0
ENDCHAR
STARTCHAR D
ENCODING 68
SWIDTH 600 0
DWIDTH 4 0
BBX 3 5 0 0
BITMAP
E0
E0
E0
E0
E0
ENDCHAR
STARTCHAR E
ENCODING 69
SWIDTH 600 0
DWIDTH 4 0
BBX 3 5 0 0
BITMAP
E0
E0
E0
E0
E0
ENDCHAR
STARTCHAR F
ENCODING 70
SWIDTH 600 0
DWIDTH 4 0
BBX 3 5 0 0
BITMAP
E0
E0
E0
E0
E0
ENDCHAR
STARTCHAR G
ENCODING 71
SWIDTH 600 0
DWIDTH 4 0
BBX 3 5 0 0
BITMAP
E0
E0
E0
E0
E0
ENDCHAR
STARTCHAR H
ENCODING 72
SWIDTH 600 0
DWIDTH 4 0
BBX 3 5 0 0
BITMAP
E0
E0
E0
E0
E0
ENDCHAR
STARTCHAR I
ENCODING 73
SWIDTH 600 0
DWIDTH 4 0
BBX 3 5 0 0
BITMAP
E0
E0
E0
E0
E0
ENDCHAR
STARTCHAR J
ENCODING 74
SWIDTH 600 0
DWIDTH 4 0
BBX 3 5 0 0
BITMAP
E0
E0
E0
E0
E0
ENDCHAR
STARTCHAR K
ENCODING 75
SWIDTH 600 0
DWIDTH 4 0
BBX 3 5 0 0
BITMAP
E0
E0
E0
E0
E0
ENDCHAR
STARTCHAR L
ENCODING 76
SWIDTH 600 0
DWIDTH 4 0
BBX 3 5 0 0
BITMAP
E0
E0
E0
E0
E0
ENDCHAR
STARTCHAR M
ENCODING 77
SWIDTH 600 0
DWIDTH 5 0
BBX 5 4 0 10
BITMAP
F8
A8
A8
A8
ENDCHAR
STARTCHAR N
ENCODING 78
SWIDTH 600 0
DWIDTH 4 0
BBX 3 5 0 0
BITMAP
E0
E0
E0
E0
E0
ENDCHAR
STARTCHAR O
ENCODING 79
SWIDTH 291 0
DWIDTH 14 0
BBX 7 7 0 8
BITMAP
38
7C
FE
FE
FE
7C
38
ENDCHAR
STARTCHAR P
ENCODING 80
SWIDTH 600 0
DWIDTH 5 0
BBX 4 4 0 10
BITMAP
F0
90
F0
80
ENDCHAR
STARTCHAR Q
ENCODING 81
SWIDTH 600 0
DWIDTH 7 0
BBX 7 6 0 9
BITMAP
6C
FE
FE
7C
38
10
ENDCHAR
STARTCHAR R
ENCODING 82
SWIDTH 600 0
DWIDTH 4 0
BBX 3 5 0 0
BITMAP
E0
E0
E0
E0
E0
ENDCHAR
STARTCHAR S
ENCODING 83
SWIDTH 600 0
DWIDTH 4 0
BBX 3 5 0 0
BITMAP
E0
E0
E0
E0
E0
ENDCHAR
STARTCHAR T
ENCODING 84
SWIDTH 600 0
DWIDTH 4 0
BBX 3 5 0 0
BITMAP
E0
E0
E0
E0
E0
ENDCHAR
STARTCHAR U
ENCODING 85
SWIDTH 600 0
DWIDTH 4 0
BBX 3 5 0 0
BITMAP
E0
E0
E0
E0
E0
ENDCHAR
STARTCHAR V
ENCODING 86
SWIDTH 600 0
DWIDTH 4 0
BBX 3 5 0 0
BITMAP
E0
E0
E0
E0
E0
ENDCHAR
STARTCHAR W
ENCODING 87
SWIDTH 600 0
DWIDTH 4 0
BBX 3 5 0 0
BITMAP
E0
E0
E0
E0
E0
ENDCHAR
STARTCHAR X
ENCODING 88
SWIDTH 600 0
DWIDTH 4 0
BBX 3 5 0 0
BITMAP
E0
E0
E0
E0
E0
ENDCHAR
STARTCHAR Y
ENCODING 89
SWIDTH 600 0
DWIDTH 4 0
BBX 3 5 0 0
BITMAP
E0
E0
E0
E0
E0
ENDCHAR
STARTCHAR Z
ENCODING 90
SWIDTH 600 0
DWIDTH 4 0
BBX 3 5 0 0
BITMAP
E0
E0
E0
E0
E0
ENDCHAR
STARTCHAR bracketleft
ENCODING 91
SWIDTH 600 0
DWIDTH 4 0
BBX 3 5 0 0
BITMAP
E0
E0
E0
E0
E0
ENDCHAR
STARTCHAR backslash
ENCODING 92
SWIDTH 600 0
DWIDTH 4 0
BBX 3 5 0 0
BITMAP
E0
E0
E0
E0
E0
ENDCHAR
STARTCHAR bracketright
ENCODING 93
SWIDTH 600 0
DWIDTH 4 0
BBX 3 5 0 0
BITMAP
E0
E0
E0
E0
E0
ENDCHAR
STARTCHAR asciicircum
ENCODING 94
SWIDTH 600 0
DWIDTH 4 0
BBX 3 5 0 0
BITMAP
E0
E0
E0
E0
E0
ENDCHAR
STARTCHAR underscore
ENCODING 95
SWIDTH 541 0
DWIDTH 13 0
BBX 13 1 0 -4
BITMAP
FFF8
ENDCHAR
STARTCHAR grave
ENCODING 96
SWIDTH 600 0
DWIDTH 4 0
BBX 3 5 0 0
BITMAP
E0
E0
E0
E0
E0
ENDCHAR
STARTCHAR a
ENCODING 97
SWIDTH 600 0
DWIDTH 4 0
BBX 3 5 0 0
BITMAP
E0
E0
E0
E0
E0
ENDCHAR
STARTCHAR b
ENCODING 98
SWIDTH 600 0
DWIDTH 4 0
BBX 3 5 0 0
BITMAP
E0
E0
E0
E0
E0
ENDCHAR
STARTCHAR c
ENCODING 99
SWIDTH 600 0
DWIDTH 4 0
BBX 3 5 0 0
BITMAP
E0
E0
E0
E0
E0
ENDCHAR
STARTCHAR d
ENCODING 100
SWIDTH 600 0
DWIDTH 4 0
BBX 3 5 0 0
BITMAP
E0
E0
E0
E0
E0
ENDCHAR
STARTCHAR e
ENCODING 101
SWIDTH 600 0
DWIDTH 4 0
BBX 3 5 0 0
BITMAP
E0
E0
E0
E0
E0
ENDCHAR
STARTCHAR f
ENCODING 102
SWIDTH 600 0
DWIDTH 4 0
BBX 3 5 0 0
BITMAP
E0
E0
E0
E0
E0
ENDCHAR
STARTCHAR g
ENCODING 103
SWIDTH 600 0
DWIDTH 4 0
BBX 3 5 0 0
BITMAP
E0
E0
E0
E0
E0
ENDCHAR
STARTCHAR h
ENCODING 104
SWIDTH 600 0
DWIDTH 4 0
BBX 3 5 0 0
BITMAP
E0
E0
E0
E0
E0
ENDCHAR
STARTCHAR i
ENCODING 105
SWIDTH 600 0
DWIDTH 4 0
BBX 3 5 0 0
BITMAP
E0
E0
E0
E0
E0
ENDCHAR
STARTCHAR j
ENCODING 106
SWIDTH 600 0
DWIDTH 4 0
BBX 3 5 0 0
BITMAP
E0
E0
E0
E0
E0
ENDCHAR
STARTCHAR k
ENCODING 107
SWIDTH 600 0
DWIDTH 4 0
BBX 3 5 0 0
BITMAP
E0
E0
E0
E0
E0
ENDCHAR
STARTCHAR l
ENCODING 108
SWIDTH 600 0
DWIDTH 4 0
BBX 3 5 0 0
BITMAP
E0
E0
E0
E0
E0
ENDCHAR
STARTCHAR m
ENCODING 109
SWIDTH 600 0
DWIDTH 4 0
BBX 3 5 0 0
BITMAP
E0
E0
E0
E0
E0
ENDCHAR
STARTCHAR n
ENCODING 110
SWIDTH 600 0
DWIDTH 4 0
BBX 3 5 0 0
BITMAP
E0
E0
E0
E0
E0
ENDCHAR
STARTCHAR o
ENCODING 111
SWIDTH 600 0
DWIDTH 4 0
BBX 3 5 0 0
BITMAP
E0
E0
E0
E0
E0
ENDCHAR
STARTCHAR p
ENCODING 112
SWIDTH 600 0
DWIDTH 4 0
BBX 3 5 0 0
BITMAP
E0
E0
E0
E0
E0
ENDCHAR
STARTCHAR q
ENCODING 113
SWIDTH 600 0
DWIDTH 4 0
BBX 3 5 0 0
BITMAP
E0
E0
E0
E0
E0
ENDCHAR
STARTCHAR r
ENCODING 114
SWIDTH 600 0
DWIDTH 4 0
BBX 3 5 0 0
BITMAP
E0
E0
E0
E0
E0
ENDCHAR
STARTCHAR s
ENCODING 115
SWIDTH 600 0
DWIDTH 4 0
BBX 3 5 0 0
BITMAP
E0
E0
E0
E0
E0
ENDCHAR
STARTCHAR t
ENCODING 116
SWIDTH 600 0
DWIDTH 4 0
BBX 3 5 0 0
BITMAP
E0
E0
E0
E0
E0
ENDCHAR
STARTCHAR u
ENCODING 117
SWIDTH 600 0
DWIDTH 4 0
BBX 3 5 0 0
BITMAP
E0
E0
E0
E0
E0
ENDCHAR
STARTCHAR v
ENCODING 118
SWIDTH 600 0
DWIDTH 4 0
BBX 3 5 0 0
BITMAP
E0
E0
E0
E0
E0
ENDCHAR
STARTCHAR w
ENCODING 119
SWIDTH 600 0
DWIDTH 4 0
BBX 3 5 0 0
BITMAP
E0
E0
E0
E0
E0
ENDCHAR
STARTCHAR x
ENCODING 120
SWIDTH 600 0
DWIDTH 4 0
BBX 3 5 0 0
BITMAP
E0
E0
E0
E0
E0
ENDCHAR
STARTCHAR y
ENCODING 121
SWIDTH 600 0
DWIDTH 4 0
BBX 3 5 0 0
BITMAP
E0
E0
E0
E0
E0
ENDCHAR
STARTCHAR z
ENCODING 122
SWIDTH 600 0
DWIDTH 4 0
BBX 3 5 0 0
BITMAP
E0
E0
E0
E0
E0
ENDCHAR
STARTCHAR braceleft
ENCODING 123
SWIDTH 600 0
DWIDTH 4 0
BBX 3 5 0 0
BITMAP
E0
E0
E0
E0
E0
ENDCHAR
STARTCHAR bar
ENCODING 124
SWIDTH 600 0
DWIDTH 4 0
BBX 3 5 0 0
BITMAP
E0
E0
E0
E0
E0
ENDCHAR
STARTCHAR braceright
ENCODING 125
SWIDTH 600 0
DWIDTH 4 0
BBX 3 5 0 0
BITMAP
E0
E0
E0
E0
E0
ENDCHAR
STARTCHAR asciitilde
ENCODING 126
SWIDTH 600 0
DWIDTH 4 0
BBX 3 5 0 0
BITMAP
E0
E0
E0
E0
E0
ENDCHAR
ENDFONT
